<svg xmlns="http://www.w3.org/2000/svg" viewBox="0 0 512 512" width="512" height="512" role="img" aria-label="Shield with visor slit">
  <defs>
    <linearGradient id="bg" x1="0" y1="0" x2="1" y2="1"><stop offset="0" stop-color="#222933"/><stop offset="1" stop-color="#0b0e12"/></linearGradient>
    <linearGradient id="plate" x1="0" y1="0" x2="0" y2="1"><stop offset="0" stop-color="#aebdc9"/><stop offset=".5" stop-color="#5f6b78"/><stop offset="1" stop-color="#39424d"/></linearGradient>
    <linearGradient id="visor" x1="0" y1="0" x2="1" y2="0"><stop offset="0" stop-color="#0c3b39"/><stop offset=".5" stop-color="#2dd4bf"/><stop offset="1" stop-color="#0c3b39"/></linearGradient>
  </defs>
  <rect x="16" y="16" width="480" height="480" rx="116" fill="url(#bg)"/>
  <rect x="17" y="17" width="478" height="478" rx="115" fill="none" stroke="#2dd4bf" stroke-opacity=".18" stroke-width="2"/>
  <path d="M256 100L396 148V270C396 350 334 400 256 436C178 400 116 350 116 270V148Z" fill="url(#plate)" stroke="#222932" stroke-width="6"/>
  <path d="M256 124L372 164V270C372 336 322 378 256 410" fill="none" stroke="#cdd9e2" stroke-opacity=".35" stroke-width="5"/>
  <rect x="160" y="244" width="192" height="40" rx="20" fill="#0b0f12"/>
  <rect x="174" y="257" width="164" height="14" rx="7" fill="url(#visor)"/>
  <circle cx="256" cy="190" r="9" fill="#788595"/>
</svg>
